<svg width="67" height="67" viewBox="0 0 67 67" fill="none" xmlns="http://www.w3.org/2000/svg">
<g clip-path="url(#clip0_154_117)">
<path d="M33.5 67.0003C33.225 67.0006 32.9527 66.9465 32.6986 66.8413C32.4446 66.736 32.2139 66.5816 32.0197 66.3868L0.613158 34.9803C0.418763 34.7859 0.26456 34.5551 0.159354 34.3011C0.0541479 34.0471 0 33.7749 0 33.5C0 33.2251 0.0541479 32.9529 0.159354 32.6989C0.26456 32.4449 0.418763 32.2141 0.613158 32.0197C1.00576 31.6271 1.53823 31.4065 2.09345 31.4065C2.36837 31.4065 2.64059 31.4607 2.89458 31.5659C3.14857 31.6711 3.37935 31.8253 3.57375 32.0197L33.5 61.9459L63.4262 32.0197C63.6206 31.8253 63.8514 31.6711 64.1054 31.5659C64.3594 31.4607 64.6316 31.4065 64.9065 31.4065C65.1815 31.4065 65.4537 31.4607 65.7077 31.5659C65.9617 31.6711 66.1925 31.8253 66.3868 32.0197C66.5812 32.2141 66.7354 32.4449 66.8406 32.6989C66.9459 32.9529 67 33.2251 67 33.5C67 33.7749 66.9459 34.0471 66.8406 34.3011C66.7354 34.5551 66.5812 34.7859 66.3868 34.9803L34.9803 66.3868C34.7861 66.5816 34.5554 66.736 34.3014 66.8413C34.0473 66.9465 33.775 67.0006 33.5 67.0003ZM33.5 35.5938C33.225 35.594 32.9527 35.54 32.6986 35.4347C32.4446 35.3294 32.2139 35.175 32.0197 34.9803L0.613158 3.57375C0.22056 3.18115 0 2.64867 0 2.09345C0 1.53823 0.22056 1.00576 0.613158 0.613158C1.00576 0.22056 1.53823 0 2.09345 0C2.64867 0 3.18115 0.22056 3.57375 0.613158L33.5 30.5394L63.4262 0.613158C63.6206 0.418763 63.8514 0.26456 64.1054 0.159354C64.3594 0.0541479 64.6316 2.04829e-09 64.9065 0C65.1815 -2.04828e-09 65.4537 0.0541479 65.7077 0.159354C65.9617 0.26456 66.1925 0.418763 66.3868 0.613158C66.5812 0.807553 66.7354 1.03833 66.8406 1.29232C66.9459 1.54631 67 1.81854 67 2.09345C67 2.36837 66.9459 2.64059 66.8406 2.89458C66.7354 3.14857 66.5812 3.37935 66.3868 3.57375L34.9803 34.9803C34.7861 35.175 34.5554 35.3294 34.3014 35.4347C34.0473 35.54 33.775 35.594 33.5 35.5938Z" fill="black"/>
</g>
<defs>
<clipPath id="clip0_154_117">
<rect width="67" height="67" fill="white"/>
</clipPath>
</defs>
</svg>
