<svg width="40" height="40" viewBox="0 0 40 40" fill="none" xmlns="http://www.w3.org/2000/svg">
<path d="M5 12.5H35C36.38 12.5 37.5 11.38 37.5 10C37.5 8.62 36.38 7.5 35 7.5H5C3.62 7.5 2.5 8.62 2.5 10C2.5 11.38 3.62 12.5 5 12.5ZM35 17.5H5C3.62 17.5 2.5 18.62 2.5 20C2.5 21.38 3.62 22.5 5 22.5H35C36.38 22.5 37.5 21.38 37.5 20C37.5 18.62 36.38 17.5 35 17.5ZM35 27.5H5C3.62 27.5 2.5 28.62 2.5 30C2.5 31.38 3.62 32.5 5 32.5H35C36.38 32.5 37.5 31.38 37.5 30C37.5 28.62 36.38 27.5 35 27.5Z" fill="#F5F2E1"/>
</svg>